<mxfile host="Electron" agent="Mozilla/5.0 (X11; Linux x86_64) AppleWebKit/537.36 (KHTML, like Gecko) draw.io/24.7.8 Chrome/128.0.6613.162 Electron/32.1.2 Safari/537.36" version="24.7.8" pages="2">
  <diagram id="C5RBs43oDa-KdzZeNtuy" name="Conceptueel Model">
    <mxGraphModel dx="819" dy="486" grid="1" gridSize="10" guides="1" tooltips="1" connect="1" arrows="1" fold="1" page="1" pageScale="1" pageWidth="1169" pageHeight="827" math="0" shadow="0">
      <root>
        <mxCell id="WIyWlLk6GJQsqaUBKTNV-0" />
        <mxCell id="WIyWlLk6GJQsqaUBKTNV-1" parent="WIyWlLk6GJQsqaUBKTNV-0" />
        <mxCell id="orKfnWybVY6OIfr_CMh5-2" value="Has" style="rhombus;whiteSpace=wrap;html=1;" parent="WIyWlLk6GJQsqaUBKTNV-1" vertex="1">
          <mxGeometry x="566" y="292" width="96" height="49" as="geometry" />
        </mxCell>
        <mxCell id="orKfnWybVY6OIfr_CMh5-4" value="Lends" style="rhombus;whiteSpace=wrap;html=1;" parent="WIyWlLk6GJQsqaUBKTNV-1" vertex="1">
          <mxGeometry x="564.5" y="415" width="95" height="59" as="geometry" />
        </mxCell>
        <mxCell id="orKfnWybVY6OIfr_CMh5-5" value="" style="endArrow=none;html=1;rounded=0;" parent="WIyWlLk6GJQsqaUBKTNV-1" source="4Xx-Y_77534VWpwhhw6w-5" target="orKfnWybVY6OIfr_CMh5-2" edge="1">
          <mxGeometry width="50" height="50" relative="1" as="geometry">
            <mxPoint x="442" y="362.3478260869565" as="sourcePoint" />
            <mxPoint x="632" y="338" as="targetPoint" />
          </mxGeometry>
        </mxCell>
        <mxCell id="orKfnWybVY6OIfr_CMh5-6" value="" style="endArrow=none;html=1;rounded=0;" parent="WIyWlLk6GJQsqaUBKTNV-1" source="orKfnWybVY6OIfr_CMh5-51" target="orKfnWybVY6OIfr_CMh5-2" edge="1">
          <mxGeometry width="50" height="50" relative="1" as="geometry">
            <mxPoint x="782" y="362.3478260869565" as="sourcePoint" />
            <mxPoint x="632" y="338" as="targetPoint" />
          </mxGeometry>
        </mxCell>
        <mxCell id="orKfnWybVY6OIfr_CMh5-7" value="" style="endArrow=none;html=1;rounded=0;" parent="WIyWlLk6GJQsqaUBKTNV-1" source="4Xx-Y_77534VWpwhhw6w-5" target="orKfnWybVY6OIfr_CMh5-4" edge="1">
          <mxGeometry width="50" height="50" relative="1" as="geometry">
            <mxPoint x="442" y="398.86956521739125" as="sourcePoint" />
            <mxPoint x="632" y="338" as="targetPoint" />
          </mxGeometry>
        </mxCell>
        <mxCell id="orKfnWybVY6OIfr_CMh5-8" value="" style="endArrow=none;html=1;rounded=0;" parent="WIyWlLk6GJQsqaUBKTNV-1" source="orKfnWybVY6OIfr_CMh5-4" target="orKfnWybVY6OIfr_CMh5-51" edge="1">
          <mxGeometry width="50" height="50" relative="1" as="geometry">
            <mxPoint x="582" y="388" as="sourcePoint" />
            <mxPoint x="782" y="398.86956521739125" as="targetPoint" />
          </mxGeometry>
        </mxCell>
        <mxCell id="orKfnWybVY6OIfr_CMh5-9" value="&lt;font style=&quot;font-size: 11px;&quot;&gt;(1..1)&lt;/font&gt;" style="text;html=1;align=center;verticalAlign=middle;whiteSpace=wrap;rounded=0;rotation=-14;" parent="WIyWlLk6GJQsqaUBKTNV-1" vertex="1">
          <mxGeometry x="448" y="341" width="20" height="20" as="geometry" />
        </mxCell>
        <mxCell id="orKfnWybVY6OIfr_CMh5-11" value="&lt;font style=&quot;font-size: 11px;&quot;&gt;(0..N)&lt;/font&gt;" style="text;html=1;align=center;verticalAlign=middle;whiteSpace=wrap;rounded=0;rotation=15;" parent="WIyWlLk6GJQsqaUBKTNV-1" vertex="1">
          <mxGeometry x="757" y="341" width="20" height="20" as="geometry" />
        </mxCell>
        <mxCell id="orKfnWybVY6OIfr_CMh5-12" value="&lt;font style=&quot;font-size: 11px;&quot;&gt;(0..N)&lt;/font&gt;" style="text;html=1;align=center;verticalAlign=middle;whiteSpace=wrap;rounded=0;rotation=18;" parent="WIyWlLk6GJQsqaUBKTNV-1" vertex="1">
          <mxGeometry x="446" y="383" width="20" height="20" as="geometry" />
        </mxCell>
        <mxCell id="orKfnWybVY6OIfr_CMh5-13" value="&lt;font style=&quot;font-size: 11px;&quot;&gt;(0..M)&lt;/font&gt;" style="text;html=1;align=center;verticalAlign=middle;whiteSpace=wrap;rounded=0;rotation=-16;" parent="WIyWlLk6GJQsqaUBKTNV-1" vertex="1">
          <mxGeometry x="757" y="380" width="20" height="20" as="geometry" />
        </mxCell>
        <mxCell id="orKfnWybVY6OIfr_CMh5-14" value="Fine" style="shape=ext;margin=3;double=1;whiteSpace=wrap;html=1;align=center;" parent="WIyWlLk6GJQsqaUBKTNV-1" vertex="1">
          <mxGeometry x="562" y="588" width="100" height="40" as="geometry" />
        </mxCell>
        <mxCell id="orKfnWybVY6OIfr_CMh5-16" value="" style="endArrow=none;html=1;rounded=0;" parent="WIyWlLk6GJQsqaUBKTNV-1" source="orKfnWybVY6OIfr_CMh5-4" target="orKfnWybVY6OIfr_CMh5-14" edge="1">
          <mxGeometry relative="1" as="geometry">
            <mxPoint x="302" y="608" as="sourcePoint" />
            <mxPoint x="462" y="608" as="targetPoint" />
          </mxGeometry>
        </mxCell>
        <mxCell id="orKfnWybVY6OIfr_CMh5-19" value="Username" style="ellipse;whiteSpace=wrap;html=1;align=center;" parent="WIyWlLk6GJQsqaUBKTNV-1" vertex="1">
          <mxGeometry x="222" y="664" width="100" height="40" as="geometry" />
        </mxCell>
        <mxCell id="orKfnWybVY6OIfr_CMh5-20" value="E-mail" style="ellipse;whiteSpace=wrap;html=1;align=center;" parent="WIyWlLk6GJQsqaUBKTNV-1" vertex="1">
          <mxGeometry x="210" y="325.77" width="100" height="40" as="geometry" />
        </mxCell>
        <mxCell id="orKfnWybVY6OIfr_CMh5-21" value="Phone Number" style="ellipse;whiteSpace=wrap;html=1;align=center;" parent="WIyWlLk6GJQsqaUBKTNV-1" vertex="1">
          <mxGeometry x="202" y="380" width="100" height="40" as="geometry" />
        </mxCell>
        <mxCell id="orKfnWybVY6OIfr_CMh5-23" value="Password" style="ellipse;whiteSpace=wrap;html=1;align=center;" parent="WIyWlLk6GJQsqaUBKTNV-1" vertex="1">
          <mxGeometry x="132" y="588" width="100" height="40" as="geometry" />
        </mxCell>
        <mxCell id="orKfnWybVY6OIfr_CMh5-25" value="" style="endArrow=none;html=1;rounded=0;" parent="WIyWlLk6GJQsqaUBKTNV-1" source="4Xx-Y_77534VWpwhhw6w-5" target="orKfnWybVY6OIfr_CMh5-21" edge="1">
          <mxGeometry relative="1" as="geometry">
            <mxPoint x="432" y="223.71428571428567" as="sourcePoint" />
            <mxPoint x="472" y="358" as="targetPoint" />
          </mxGeometry>
        </mxCell>
        <mxCell id="orKfnWybVY6OIfr_CMh5-26" value="" style="endArrow=none;html=1;rounded=0;" parent="WIyWlLk6GJQsqaUBKTNV-1" source="4Xx-Y_77534VWpwhhw6w-5" target="orKfnWybVY6OIfr_CMh5-20" edge="1">
          <mxGeometry relative="1" as="geometry">
            <mxPoint x="432" y="201.52941176470586" as="sourcePoint" />
            <mxPoint x="482" y="368" as="targetPoint" />
          </mxGeometry>
        </mxCell>
        <mxCell id="orKfnWybVY6OIfr_CMh5-27" value="" style="endArrow=none;html=1;rounded=0;" parent="WIyWlLk6GJQsqaUBKTNV-1" source="orKfnWybVY6OIfr_CMh5-49" target="orKfnWybVY6OIfr_CMh5-19" edge="1">
          <mxGeometry relative="1" as="geometry">
            <mxPoint x="292" y="588" as="sourcePoint" />
            <mxPoint x="352" y="784" as="targetPoint" />
          </mxGeometry>
        </mxCell>
        <mxCell id="orKfnWybVY6OIfr_CMh5-28" value="" style="endArrow=none;html=1;rounded=0;" parent="WIyWlLk6GJQsqaUBKTNV-1" source="orKfnWybVY6OIfr_CMh5-49" target="orKfnWybVY6OIfr_CMh5-23" edge="1">
          <mxGeometry relative="1" as="geometry">
            <mxPoint x="318.25" y="574" as="sourcePoint" />
            <mxPoint x="362" y="794" as="targetPoint" />
          </mxGeometry>
        </mxCell>
        <mxCell id="orKfnWybVY6OIfr_CMh5-33" value="Price" style="ellipse;whiteSpace=wrap;html=1;align=center;" parent="WIyWlLk6GJQsqaUBKTNV-1" vertex="1">
          <mxGeometry x="862" y="432" width="100" height="40" as="geometry" />
        </mxCell>
        <mxCell id="orKfnWybVY6OIfr_CMh5-35" value="Description" style="ellipse;whiteSpace=wrap;html=1;align=center;" parent="WIyWlLk6GJQsqaUBKTNV-1" vertex="1">
          <mxGeometry x="937" y="392" width="100" height="40" as="geometry" />
        </mxCell>
        <mxCell id="orKfnWybVY6OIfr_CMh5-36" value="Name" style="ellipse;whiteSpace=wrap;html=1;align=center;" parent="WIyWlLk6GJQsqaUBKTNV-1" vertex="1">
          <mxGeometry x="937" y="341" width="100" height="40" as="geometry" />
        </mxCell>
        <mxCell id="orKfnWybVY6OIfr_CMh5-37" value="" style="endArrow=none;html=1;rounded=0;" parent="WIyWlLk6GJQsqaUBKTNV-1" source="orKfnWybVY6OIfr_CMh5-33" target="orKfnWybVY6OIfr_CMh5-51" edge="1">
          <mxGeometry relative="1" as="geometry">
            <mxPoint x="722" y="557.71" as="sourcePoint" />
            <mxPoint x="870.3783783783783" y="408" as="targetPoint" />
          </mxGeometry>
        </mxCell>
        <mxCell id="orKfnWybVY6OIfr_CMh5-38" value="" style="endArrow=none;html=1;rounded=0;" parent="WIyWlLk6GJQsqaUBKTNV-1" source="orKfnWybVY6OIfr_CMh5-35" target="orKfnWybVY6OIfr_CMh5-51" edge="1">
          <mxGeometry relative="1" as="geometry">
            <mxPoint x="702" y="538" as="sourcePoint" />
            <mxPoint x="902" y="371.625" as="targetPoint" />
          </mxGeometry>
        </mxCell>
        <mxCell id="orKfnWybVY6OIfr_CMh5-40" value="" style="endArrow=none;html=1;rounded=0;" parent="WIyWlLk6GJQsqaUBKTNV-1" source="orKfnWybVY6OIfr_CMh5-51" target="orKfnWybVY6OIfr_CMh5-36" edge="1">
          <mxGeometry relative="1" as="geometry">
            <mxPoint x="897.7142857142858" y="348" as="sourcePoint" />
            <mxPoint x="862" y="418" as="targetPoint" />
          </mxGeometry>
        </mxCell>
        <mxCell id="orKfnWybVY6OIfr_CMh5-43" value="End" style="ellipse;whiteSpace=wrap;html=1;align=center;" parent="WIyWlLk6GJQsqaUBKTNV-1" vertex="1">
          <mxGeometry x="652" y="488" width="100" height="40" as="geometry" />
        </mxCell>
        <mxCell id="orKfnWybVY6OIfr_CMh5-44" value="Start" style="ellipse;whiteSpace=wrap;html=1;align=center;" parent="WIyWlLk6GJQsqaUBKTNV-1" vertex="1">
          <mxGeometry x="472" y="488" width="100" height="40" as="geometry" />
        </mxCell>
        <mxCell id="orKfnWybVY6OIfr_CMh5-45" value="" style="endArrow=none;html=1;rounded=0;" parent="WIyWlLk6GJQsqaUBKTNV-1" source="orKfnWybVY6OIfr_CMh5-43" target="orKfnWybVY6OIfr_CMh5-4" edge="1">
          <mxGeometry relative="1" as="geometry">
            <mxPoint x="562" y="548" as="sourcePoint" />
            <mxPoint x="722" y="548" as="targetPoint" />
          </mxGeometry>
        </mxCell>
        <mxCell id="orKfnWybVY6OIfr_CMh5-47" value="" style="endArrow=none;html=1;rounded=0;" parent="WIyWlLk6GJQsqaUBKTNV-1" source="orKfnWybVY6OIfr_CMh5-44" target="orKfnWybVY6OIfr_CMh5-4" edge="1">
          <mxGeometry relative="1" as="geometry">
            <mxPoint x="562" y="548" as="sourcePoint" />
            <mxPoint x="722" y="548" as="targetPoint" />
          </mxGeometry>
        </mxCell>
        <mxCell id="orKfnWybVY6OIfr_CMh5-49" value="User" style="whiteSpace=wrap;html=1;align=center;" parent="WIyWlLk6GJQsqaUBKTNV-1" vertex="1">
          <mxGeometry x="252" y="588" width="100" height="40" as="geometry" />
        </mxCell>
        <mxCell id="orKfnWybVY6OIfr_CMh5-51" value="Object" style="whiteSpace=wrap;html=1;align=center;" parent="WIyWlLk6GJQsqaUBKTNV-1" vertex="1">
          <mxGeometry x="782" y="358" width="100" height="40" as="geometry" />
        </mxCell>
        <mxCell id="4Xx-Y_77534VWpwhhw6w-1" value="Amount due" style="ellipse;whiteSpace=wrap;html=1;align=center;" parent="WIyWlLk6GJQsqaUBKTNV-1" vertex="1">
          <mxGeometry x="510" y="664" width="100" height="40" as="geometry" />
        </mxCell>
        <mxCell id="4Xx-Y_77534VWpwhhw6w-4" value="" style="endArrow=none;html=1;rounded=0;" parent="WIyWlLk6GJQsqaUBKTNV-1" source="orKfnWybVY6OIfr_CMh5-14" target="4Xx-Y_77534VWpwhhw6w-1" edge="1">
          <mxGeometry relative="1" as="geometry">
            <mxPoint x="432" y="478" as="sourcePoint" />
            <mxPoint x="592" y="478" as="targetPoint" />
          </mxGeometry>
        </mxCell>
        <mxCell id="4Xx-Y_77534VWpwhhw6w-5" value="Profile" style="whiteSpace=wrap;html=1;align=center;" parent="WIyWlLk6GJQsqaUBKTNV-1" vertex="1">
          <mxGeometry x="332" y="358" width="100" height="40" as="geometry" />
        </mxCell>
        <mxCell id="4Xx-Y_77534VWpwhhw6w-6" value="Has" style="shape=rhombus;perimeter=rhombusPerimeter;whiteSpace=wrap;html=1;align=center;" parent="WIyWlLk6GJQsqaUBKTNV-1" vertex="1">
          <mxGeometry x="282" y="468" width="120" height="60" as="geometry" />
        </mxCell>
        <mxCell id="4Xx-Y_77534VWpwhhw6w-8" value="" style="endArrow=none;html=1;rounded=0;" parent="WIyWlLk6GJQsqaUBKTNV-1" source="4Xx-Y_77534VWpwhhw6w-6" target="4Xx-Y_77534VWpwhhw6w-5" edge="1">
          <mxGeometry relative="1" as="geometry">
            <mxPoint x="292" y="528" as="sourcePoint" />
            <mxPoint x="452" y="528" as="targetPoint" />
          </mxGeometry>
        </mxCell>
        <mxCell id="4Xx-Y_77534VWpwhhw6w-9" value="" style="endArrow=none;html=1;rounded=0;" parent="WIyWlLk6GJQsqaUBKTNV-1" source="orKfnWybVY6OIfr_CMh5-49" target="4Xx-Y_77534VWpwhhw6w-6" edge="1">
          <mxGeometry relative="1" as="geometry">
            <mxPoint x="292" y="528" as="sourcePoint" />
            <mxPoint x="452" y="528" as="targetPoint" />
          </mxGeometry>
        </mxCell>
        <mxCell id="4Xx-Y_77534VWpwhhw6w-10" value="&lt;font style=&quot;font-size: 11px;&quot;&gt;(1..1)&lt;/font&gt;" style="text;html=1;align=center;verticalAlign=middle;whiteSpace=wrap;rounded=0;rotation=0;" parent="WIyWlLk6GJQsqaUBKTNV-1" vertex="1">
          <mxGeometry x="318" y="569" width="20" height="20" as="geometry" />
        </mxCell>
        <mxCell id="4Xx-Y_77534VWpwhhw6w-11" value="&lt;font style=&quot;font-size: 11px;&quot;&gt;(1..1)&lt;/font&gt;" style="text;html=1;align=center;verticalAlign=middle;whiteSpace=wrap;rounded=0;rotation=0;" parent="WIyWlLk6GJQsqaUBKTNV-1" vertex="1">
          <mxGeometry x="378" y="395" width="20" height="20" as="geometry" />
        </mxCell>
        <mxCell id="J7_Exr57umTuO-PS0QFA-0" value="Location" style="whiteSpace=wrap;html=1;align=center;" parent="WIyWlLk6GJQsqaUBKTNV-1" vertex="1">
          <mxGeometry x="561" y="119" width="100" height="40" as="geometry" />
        </mxCell>
        <mxCell id="J7_Exr57umTuO-PS0QFA-1" value="Is at" style="rhombus;whiteSpace=wrap;html=1;" parent="WIyWlLk6GJQsqaUBKTNV-1" vertex="1">
          <mxGeometry x="672" y="219" width="80" height="49" as="geometry" />
        </mxCell>
        <mxCell id="J7_Exr57umTuO-PS0QFA-2" value="Is at" style="rhombus;whiteSpace=wrap;html=1;" parent="WIyWlLk6GJQsqaUBKTNV-1" vertex="1">
          <mxGeometry x="466" y="219" width="80" height="49" as="geometry" />
        </mxCell>
        <mxCell id="J7_Exr57umTuO-PS0QFA-3" value="" style="endArrow=none;html=1;rounded=0;" parent="WIyWlLk6GJQsqaUBKTNV-1" source="J7_Exr57umTuO-PS0QFA-2" target="J7_Exr57umTuO-PS0QFA-0" edge="1">
          <mxGeometry relative="1" as="geometry">
            <mxPoint x="507" y="269" as="sourcePoint" />
            <mxPoint x="667" y="269" as="targetPoint" />
          </mxGeometry>
        </mxCell>
        <mxCell id="J7_Exr57umTuO-PS0QFA-4" value="" style="endArrow=none;html=1;rounded=0;" parent="WIyWlLk6GJQsqaUBKTNV-1" source="4Xx-Y_77534VWpwhhw6w-5" target="J7_Exr57umTuO-PS0QFA-2" edge="1">
          <mxGeometry relative="1" as="geometry">
            <mxPoint x="507" y="269" as="sourcePoint" />
            <mxPoint x="667" y="269" as="targetPoint" />
          </mxGeometry>
        </mxCell>
        <mxCell id="J7_Exr57umTuO-PS0QFA-5" value="" style="endArrow=none;html=1;rounded=0;" parent="WIyWlLk6GJQsqaUBKTNV-1" source="orKfnWybVY6OIfr_CMh5-51" target="J7_Exr57umTuO-PS0QFA-1" edge="1">
          <mxGeometry relative="1" as="geometry">
            <mxPoint x="507" y="269" as="sourcePoint" />
            <mxPoint x="667" y="269" as="targetPoint" />
          </mxGeometry>
        </mxCell>
        <mxCell id="J7_Exr57umTuO-PS0QFA-6" value="" style="endArrow=none;html=1;rounded=0;" parent="WIyWlLk6GJQsqaUBKTNV-1" source="J7_Exr57umTuO-PS0QFA-1" target="J7_Exr57umTuO-PS0QFA-0" edge="1">
          <mxGeometry relative="1" as="geometry">
            <mxPoint x="507" y="269" as="sourcePoint" />
            <mxPoint x="667" y="269" as="targetPoint" />
          </mxGeometry>
        </mxCell>
        <mxCell id="J7_Exr57umTuO-PS0QFA-7" value="&lt;font style=&quot;font-size: 11px;&quot;&gt;(0..N)&lt;/font&gt;" style="text;html=1;align=center;verticalAlign=middle;whiteSpace=wrap;rounded=0;rotation=-46;" parent="WIyWlLk6GJQsqaUBKTNV-1" vertex="1">
          <mxGeometry x="399.85" y="325.77" width="22" height="21" as="geometry" />
        </mxCell>
        <mxCell id="J7_Exr57umTuO-PS0QFA-8" value="&lt;font style=&quot;font-size: 11px;&quot;&gt;(1..1)&lt;/font&gt;" style="text;html=1;align=center;verticalAlign=middle;whiteSpace=wrap;rounded=0;rotation=-42;" parent="WIyWlLk6GJQsqaUBKTNV-1" vertex="1">
          <mxGeometry x="556" y="163" width="20" height="20" as="geometry" />
        </mxCell>
        <mxCell id="J7_Exr57umTuO-PS0QFA-9" value="&lt;font style=&quot;font-size: 11px;&quot;&gt;(1..1)&lt;/font&gt;" style="text;html=1;align=center;verticalAlign=middle;whiteSpace=wrap;rounded=0;rotation=45;" parent="WIyWlLk6GJQsqaUBKTNV-1" vertex="1">
          <mxGeometry x="646" y="164" width="20" height="20" as="geometry" />
        </mxCell>
        <mxCell id="J7_Exr57umTuO-PS0QFA-10" value="&lt;font style=&quot;font-size: 11px;&quot;&gt;(1..1)&lt;/font&gt;" style="text;html=1;align=center;verticalAlign=middle;whiteSpace=wrap;rounded=0;rotation=0;" parent="WIyWlLk6GJQsqaUBKTNV-1" vertex="1">
          <mxGeometry x="816" y="341" width="20" height="20" as="geometry" />
        </mxCell>
        <mxCell id="o1FvbyAlDGFvQXaPQR0_-2" value="Latitude" style="ellipse;whiteSpace=wrap;html=1;align=center;" parent="WIyWlLk6GJQsqaUBKTNV-1" vertex="1">
          <mxGeometry x="661" y="70" width="100" height="40" as="geometry" />
        </mxCell>
        <mxCell id="o1FvbyAlDGFvQXaPQR0_-3" value="Longtitude" style="ellipse;whiteSpace=wrap;html=1;align=center;" parent="WIyWlLk6GJQsqaUBKTNV-1" vertex="1">
          <mxGeometry x="564" y="30" width="100" height="40" as="geometry" />
        </mxCell>
        <mxCell id="o1FvbyAlDGFvQXaPQR0_-4" value="Display name" style="ellipse;whiteSpace=wrap;html=1;align=center;" parent="WIyWlLk6GJQsqaUBKTNV-1" vertex="1">
          <mxGeometry x="462" y="70" width="100" height="40" as="geometry" />
        </mxCell>
        <mxCell id="pjcocmFD-WZUv9KvS9gG-0" value="" style="endArrow=none;html=1;rounded=0;" parent="WIyWlLk6GJQsqaUBKTNV-1" source="J7_Exr57umTuO-PS0QFA-0" target="o1FvbyAlDGFvQXaPQR0_-2" edge="1">
          <mxGeometry relative="1" as="geometry">
            <mxPoint x="540" y="180" as="sourcePoint" />
            <mxPoint x="700" y="180" as="targetPoint" />
          </mxGeometry>
        </mxCell>
        <mxCell id="pjcocmFD-WZUv9KvS9gG-1" value="" style="endArrow=none;html=1;rounded=0;" parent="WIyWlLk6GJQsqaUBKTNV-1" source="J7_Exr57umTuO-PS0QFA-0" target="o1FvbyAlDGFvQXaPQR0_-3" edge="1">
          <mxGeometry relative="1" as="geometry">
            <mxPoint x="540" y="180" as="sourcePoint" />
            <mxPoint x="700" y="180" as="targetPoint" />
          </mxGeometry>
        </mxCell>
        <mxCell id="pjcocmFD-WZUv9KvS9gG-2" value="" style="endArrow=none;html=1;rounded=0;" parent="WIyWlLk6GJQsqaUBKTNV-1" source="o1FvbyAlDGFvQXaPQR0_-4" target="J7_Exr57umTuO-PS0QFA-0" edge="1">
          <mxGeometry relative="1" as="geometry">
            <mxPoint x="540" y="180" as="sourcePoint" />
            <mxPoint x="700" y="180" as="targetPoint" />
          </mxGeometry>
        </mxCell>
        <mxCell id="yiWn7BFJ5Gth2ngydoOU-0" value="Due date" style="ellipse;whiteSpace=wrap;html=1;align=center;" parent="WIyWlLk6GJQsqaUBKTNV-1" vertex="1">
          <mxGeometry x="620" y="664" width="100" height="40" as="geometry" />
        </mxCell>
        <mxCell id="yiWn7BFJ5Gth2ngydoOU-1" value="" style="endArrow=none;html=1;rounded=0;" parent="WIyWlLk6GJQsqaUBKTNV-1" source="orKfnWybVY6OIfr_CMh5-14" target="yiWn7BFJ5Gth2ngydoOU-0" edge="1">
          <mxGeometry relative="1" as="geometry">
            <mxPoint x="540" y="620" as="sourcePoint" />
            <mxPoint x="700" y="620" as="targetPoint" />
          </mxGeometry>
        </mxCell>
        <mxCell id="yvI2t30vAvXHdtYHSN14-0" value="&lt;font style=&quot;font-size: 11px;&quot;&gt;(0..1)&lt;/font&gt;" style="text;html=1;align=center;verticalAlign=middle;whiteSpace=wrap;rounded=0;rotation=0;" parent="WIyWlLk6GJQsqaUBKTNV-1" vertex="1">
          <mxGeometry x="620" y="568" width="20" height="20" as="geometry" />
        </mxCell>
      </root>
    </mxGraphModel>
  </diagram>
  <diagram id="iP7yAW1gZqmqzOnnHbDW" name="Domeinmodel">
    <mxGraphModel dx="683" dy="405" grid="1" gridSize="10" guides="1" tooltips="1" connect="1" arrows="1" fold="1" page="1" pageScale="1" pageWidth="1169" pageHeight="827" math="0" shadow="0">
      <root>
        <mxCell id="0" />
        <mxCell id="1" parent="0" />
        <mxCell id="3wHSySrnC8_4C8aTv1dS-1" value="User" style="swimlane;fontStyle=0;childLayout=stackLayout;horizontal=1;startSize=26;horizontalStack=0;resizeParent=1;resizeParentMax=0;resizeLast=0;collapsible=1;marginBottom=0;align=center;fontSize=14;" parent="1" vertex="1">
          <mxGeometry x="270" y="491" width="160" height="86" as="geometry" />
        </mxCell>
        <mxCell id="3wHSySrnC8_4C8aTv1dS-2" value="Username: string" style="text;strokeColor=none;fillColor=none;spacingLeft=4;spacingRight=4;overflow=hidden;rotatable=0;points=[[0,0.5],[1,0.5]];portConstraint=eastwest;fontSize=12;whiteSpace=wrap;html=1;" parent="3wHSySrnC8_4C8aTv1dS-1" vertex="1">
          <mxGeometry y="26" width="160" height="30" as="geometry" />
        </mxCell>
        <mxCell id="3wHSySrnC8_4C8aTv1dS-3" value="Password: string" style="text;strokeColor=none;fillColor=none;spacingLeft=4;spacingRight=4;overflow=hidden;rotatable=0;points=[[0,0.5],[1,0.5]];portConstraint=eastwest;fontSize=12;whiteSpace=wrap;html=1;" parent="3wHSySrnC8_4C8aTv1dS-1" vertex="1">
          <mxGeometry y="56" width="160" height="30" as="geometry" />
        </mxCell>
        <mxCell id="3wHSySrnC8_4C8aTv1dS-4" value="Profiel" style="swimlane;fontStyle=0;childLayout=stackLayout;horizontal=1;startSize=26;horizontalStack=0;resizeParent=1;resizeParentMax=0;resizeLast=0;collapsible=1;marginBottom=0;align=center;fontSize=14;" parent="1" vertex="1">
          <mxGeometry x="270" y="302" width="160" height="86" as="geometry" />
        </mxCell>
        <mxCell id="3wHSySrnC8_4C8aTv1dS-5" value="E-mail: string&lt;span style=&quot;white-space: pre;&quot;&gt;&#x9;&lt;/span&gt;&lt;span style=&quot;white-space: pre;&quot;&gt;&#x9;&lt;/span&gt;" style="text;strokeColor=none;fillColor=none;spacingLeft=4;spacingRight=4;overflow=hidden;rotatable=0;points=[[0,0.5],[1,0.5]];portConstraint=eastwest;fontSize=12;whiteSpace=wrap;html=1;" parent="3wHSySrnC8_4C8aTv1dS-4" vertex="1">
          <mxGeometry y="26" width="160" height="30" as="geometry" />
        </mxCell>
        <mxCell id="3wHSySrnC8_4C8aTv1dS-6" value="Phone number: string" style="text;strokeColor=none;fillColor=none;spacingLeft=4;spacingRight=4;overflow=hidden;rotatable=0;points=[[0,0.5],[1,0.5]];portConstraint=eastwest;fontSize=12;whiteSpace=wrap;html=1;" parent="3wHSySrnC8_4C8aTv1dS-4" vertex="1">
          <mxGeometry y="56" width="160" height="30" as="geometry" />
        </mxCell>
        <mxCell id="3wHSySrnC8_4C8aTv1dS-8" value="Object" style="swimlane;fontStyle=0;childLayout=stackLayout;horizontal=1;startSize=26;horizontalStack=0;resizeParent=1;resizeParentMax=0;resizeLast=0;collapsible=1;marginBottom=0;align=center;fontSize=14;" parent="1" vertex="1">
          <mxGeometry x="740" y="287" width="160" height="116" as="geometry" />
        </mxCell>
        <mxCell id="3wHSySrnC8_4C8aTv1dS-9" value="Name: string" style="text;strokeColor=none;fillColor=none;spacingLeft=4;spacingRight=4;overflow=hidden;rotatable=0;points=[[0,0.5],[1,0.5]];portConstraint=eastwest;fontSize=12;whiteSpace=wrap;html=1;" parent="3wHSySrnC8_4C8aTv1dS-8" vertex="1">
          <mxGeometry y="26" width="160" height="30" as="geometry" />
        </mxCell>
        <mxCell id="3wHSySrnC8_4C8aTv1dS-10" value="Description: string" style="text;strokeColor=none;fillColor=none;spacingLeft=4;spacingRight=4;overflow=hidden;rotatable=0;points=[[0,0.5],[1,0.5]];portConstraint=eastwest;fontSize=12;whiteSpace=wrap;html=1;" parent="3wHSySrnC8_4C8aTv1dS-8" vertex="1">
          <mxGeometry y="56" width="160" height="30" as="geometry" />
        </mxCell>
        <mxCell id="3wHSySrnC8_4C8aTv1dS-12" value="Price: number" style="text;strokeColor=none;fillColor=none;spacingLeft=4;spacingRight=4;overflow=hidden;rotatable=0;points=[[0,0.5],[1,0.5]];portConstraint=eastwest;fontSize=12;whiteSpace=wrap;html=1;" parent="3wHSySrnC8_4C8aTv1dS-8" vertex="1">
          <mxGeometry y="86" width="160" height="30" as="geometry" />
        </mxCell>
        <mxCell id="3wHSySrnC8_4C8aTv1dS-13" value="Fine" style="swimlane;fontStyle=0;childLayout=stackLayout;horizontal=1;startSize=26;horizontalStack=0;resizeParent=1;resizeParentMax=0;resizeLast=0;collapsible=1;marginBottom=0;align=center;fontSize=14;" parent="1" vertex="1">
          <mxGeometry x="510" y="671" width="160" height="86" as="geometry" />
        </mxCell>
        <mxCell id="3wHSySrnC8_4C8aTv1dS-14" value="Amount due: number" style="text;strokeColor=none;fillColor=none;spacingLeft=4;spacingRight=4;overflow=hidden;rotatable=0;points=[[0,0.5],[1,0.5]];portConstraint=eastwest;fontSize=12;whiteSpace=wrap;html=1;" parent="3wHSySrnC8_4C8aTv1dS-13" vertex="1">
          <mxGeometry y="26" width="160" height="30" as="geometry" />
        </mxCell>
        <mxCell id="3wHSySrnC8_4C8aTv1dS-15" value="Due date: date" style="text;strokeColor=none;fillColor=none;spacingLeft=4;spacingRight=4;overflow=hidden;rotatable=0;points=[[0,0.5],[1,0.5]];portConstraint=eastwest;fontSize=12;whiteSpace=wrap;html=1;" parent="3wHSySrnC8_4C8aTv1dS-13" vertex="1">
          <mxGeometry y="56" width="160" height="30" as="geometry" />
        </mxCell>
        <mxCell id="6EuKlPuf6K4xtYGKu7IM-1" value="Locatie " style="swimlane;fontStyle=0;childLayout=stackLayout;horizontal=1;startSize=26;horizontalStack=0;resizeParent=1;resizeParentMax=0;resizeLast=0;collapsible=1;marginBottom=0;align=center;fontSize=14;" parent="1" vertex="1">
          <mxGeometry x="500" y="71" width="160" height="116" as="geometry" />
        </mxCell>
        <mxCell id="6EuKlPuf6K4xtYGKu7IM-2" value="Display name: string" style="text;strokeColor=none;fillColor=none;spacingLeft=4;spacingRight=4;overflow=hidden;rotatable=0;points=[[0,0.5],[1,0.5]];portConstraint=eastwest;fontSize=12;whiteSpace=wrap;html=1;" parent="6EuKlPuf6K4xtYGKu7IM-1" vertex="1">
          <mxGeometry y="26" width="160" height="30" as="geometry" />
        </mxCell>
        <mxCell id="6EuKlPuf6K4xtYGKu7IM-3" value="Longtitude: number" style="text;strokeColor=none;fillColor=none;spacingLeft=4;spacingRight=4;overflow=hidden;rotatable=0;points=[[0,0.5],[1,0.5]];portConstraint=eastwest;fontSize=12;whiteSpace=wrap;html=1;" parent="6EuKlPuf6K4xtYGKu7IM-1" vertex="1">
          <mxGeometry y="56" width="160" height="30" as="geometry" />
        </mxCell>
        <mxCell id="6EuKlPuf6K4xtYGKu7IM-4" value="Latitude: number" style="text;strokeColor=none;fillColor=none;spacingLeft=4;spacingRight=4;overflow=hidden;rotatable=0;points=[[0,0.5],[1,0.5]];portConstraint=eastwest;fontSize=12;whiteSpace=wrap;html=1;" parent="6EuKlPuf6K4xtYGKu7IM-1" vertex="1">
          <mxGeometry y="86" width="160" height="30" as="geometry" />
        </mxCell>
        <mxCell id="QwC4DLSg5yHez1xrWoOO-2" value="Has" style="endArrow=open;endSize=12;html=1;rounded=0;" parent="1" source="3wHSySrnC8_4C8aTv1dS-1" target="3wHSySrnC8_4C8aTv1dS-4" edge="1">
          <mxGeometry width="160" relative="1" as="geometry">
            <mxPoint x="540" y="502" as="sourcePoint" />
            <mxPoint x="700" y="502" as="targetPoint" />
          </mxGeometry>
        </mxCell>
        <mxCell id="QwC4DLSg5yHez1xrWoOO-3" value="Has" style="endArrow=open;endSize=12;html=1;rounded=0;" parent="1" source="3wHSySrnC8_4C8aTv1dS-4" target="3wHSySrnC8_4C8aTv1dS-8" edge="1">
          <mxGeometry width="160" relative="1" as="geometry">
            <mxPoint x="540" y="502" as="sourcePoint" />
            <mxPoint x="700" y="502" as="targetPoint" />
          </mxGeometry>
        </mxCell>
        <mxCell id="QwC4DLSg5yHez1xrWoOO-6" value="Loan" style="swimlane;fontStyle=0;childLayout=stackLayout;horizontal=1;startSize=26;horizontalStack=0;resizeParent=1;resizeParentMax=0;resizeLast=0;collapsible=1;marginBottom=0;align=center;fontSize=14;" parent="1" vertex="1">
          <mxGeometry x="510" y="491" width="160" height="86" as="geometry" />
        </mxCell>
        <mxCell id="QwC4DLSg5yHez1xrWoOO-7" value="Start: timestamp" style="text;strokeColor=none;fillColor=none;spacingLeft=4;spacingRight=4;overflow=hidden;rotatable=0;points=[[0,0.5],[1,0.5]];portConstraint=eastwest;fontSize=12;whiteSpace=wrap;html=1;" parent="QwC4DLSg5yHez1xrWoOO-6" vertex="1">
          <mxGeometry y="26" width="160" height="30" as="geometry" />
        </mxCell>
        <mxCell id="QwC4DLSg5yHez1xrWoOO-8" value="End: timestamp" style="text;strokeColor=none;fillColor=none;spacingLeft=4;spacingRight=4;overflow=hidden;rotatable=0;points=[[0,0.5],[1,0.5]];portConstraint=eastwest;fontSize=12;whiteSpace=wrap;html=1;" parent="QwC4DLSg5yHez1xrWoOO-6" vertex="1">
          <mxGeometry y="56" width="160" height="30" as="geometry" />
        </mxCell>
        <mxCell id="QwC4DLSg5yHez1xrWoOO-9" value="Results in" style="endArrow=open;endSize=12;html=1;rounded=0;" parent="1" source="QwC4DLSg5yHez1xrWoOO-6" target="3wHSySrnC8_4C8aTv1dS-13" edge="1">
          <mxGeometry width="160" relative="1" as="geometry">
            <mxPoint x="470" y="501" as="sourcePoint" />
            <mxPoint x="630" y="501" as="targetPoint" />
          </mxGeometry>
        </mxCell>
        <mxCell id="QwC4DLSg5yHez1xrWoOO-10" value="Creates" style="endArrow=open;endSize=12;html=1;rounded=0;" parent="1" source="3wHSySrnC8_4C8aTv1dS-4" target="QwC4DLSg5yHez1xrWoOO-6" edge="1">
          <mxGeometry width="160" relative="1" as="geometry">
            <mxPoint x="470" y="551" as="sourcePoint" />
            <mxPoint x="630" y="551" as="targetPoint" />
          </mxGeometry>
        </mxCell>
        <mxCell id="QwC4DLSg5yHez1xrWoOO-11" value="Is part of" style="endArrow=open;endSize=12;html=1;rounded=0;" parent="1" source="3wHSySrnC8_4C8aTv1dS-8" target="QwC4DLSg5yHez1xrWoOO-6" edge="1">
          <mxGeometry width="160" relative="1" as="geometry">
            <mxPoint x="470" y="551" as="sourcePoint" />
            <mxPoint x="630" y="551" as="targetPoint" />
          </mxGeometry>
        </mxCell>
        <mxCell id="QwC4DLSg5yHez1xrWoOO-13" value="Is at" style="endArrow=open;endSize=12;html=1;rounded=0;" parent="1" source="3wHSySrnC8_4C8aTv1dS-4" target="6EuKlPuf6K4xtYGKu7IM-1" edge="1">
          <mxGeometry width="160" relative="1" as="geometry">
            <mxPoint x="470" y="271" as="sourcePoint" />
            <mxPoint x="630" y="271" as="targetPoint" />
          </mxGeometry>
        </mxCell>
        <mxCell id="QwC4DLSg5yHez1xrWoOO-14" value="Is at" style="endArrow=open;endSize=12;html=1;rounded=0;" parent="1" source="3wHSySrnC8_4C8aTv1dS-8" target="6EuKlPuf6K4xtYGKu7IM-1" edge="1">
          <mxGeometry width="160" relative="1" as="geometry">
            <mxPoint x="406" y="312" as="sourcePoint" />
            <mxPoint x="528" y="197" as="targetPoint" />
          </mxGeometry>
        </mxCell>
        <mxCell id="QwC4DLSg5yHez1xrWoOO-15" value="&lt;font style=&quot;font-size: 11px;&quot;&gt;*&lt;/font&gt;" style="text;html=1;align=center;verticalAlign=middle;whiteSpace=wrap;rounded=0;" parent="1" vertex="1">
          <mxGeometry x="716" y="323" width="20" height="20" as="geometry" />
        </mxCell>
        <mxCell id="QwC4DLSg5yHez1xrWoOO-16" value="&lt;font style=&quot;font-size: 11px;&quot;&gt;*&lt;/font&gt;" style="text;html=1;align=center;verticalAlign=middle;whiteSpace=wrap;rounded=0;" parent="1" vertex="1">
          <mxGeometry x="644" y="462" width="20" height="20" as="geometry" />
        </mxCell>
        <mxCell id="QwC4DLSg5yHez1xrWoOO-17" value="&lt;font style=&quot;font-size: 11px;&quot;&gt;*&lt;/font&gt;" style="text;html=1;align=center;verticalAlign=middle;whiteSpace=wrap;rounded=0;" parent="1" vertex="1">
          <mxGeometry x="513" y="463" width="20" height="20" as="geometry" />
        </mxCell>
        <mxCell id="QwC4DLSg5yHez1xrWoOO-18" value="&lt;font style=&quot;font-size: 11px;&quot;&gt;1&lt;/font&gt;" style="text;html=1;align=center;verticalAlign=middle;whiteSpace=wrap;rounded=0;" parent="1" vertex="1">
          <mxGeometry x="352" y="393" width="20" height="20" as="geometry" />
        </mxCell>
        <mxCell id="QwC4DLSg5yHez1xrWoOO-19" value="&lt;font style=&quot;font-size: 11px;&quot;&gt;1&lt;/font&gt;" style="text;html=1;align=center;verticalAlign=middle;whiteSpace=wrap;rounded=0;" parent="1" vertex="1">
          <mxGeometry x="630" y="187" width="20" height="20" as="geometry" />
        </mxCell>
        <mxCell id="QwC4DLSg5yHez1xrWoOO-20" value="&lt;font style=&quot;font-size: 11px;&quot;&gt;1&lt;/font&gt;" style="text;html=1;align=center;verticalAlign=middle;whiteSpace=wrap;rounded=0;" parent="1" vertex="1">
          <mxGeometry x="513" y="187" width="20" height="20" as="geometry" />
        </mxCell>
        <mxCell id="QwC4DLSg5yHez1xrWoOO-21" value="&lt;font style=&quot;font-size: 11px;&quot;&gt;0..1&lt;/font&gt;" style="text;html=1;align=center;verticalAlign=middle;whiteSpace=wrap;rounded=0;" parent="1" vertex="1">
          <mxGeometry x="600" y="651" width="20" height="20" as="geometry" />
        </mxCell>
      </root>
    </mxGraphModel>
  </diagram>
</mxfile>
